<?xml version="1.0" encoding="UTF-8" standalone="no"?>
<!-- Created with Inkscape (http://www.inkscape.org/) -->

<svg
   version="1.1"
   id="svg159"
   width="64"
   height="64"
   viewBox="0 0 64 64"
   sodipodi:docname="Missile_SAO.svg"
   inkscape:version="1.2.2 (b0a8486541, 2022-12-01)"
   xmlns:inkscape="http://www.inkscape.org/namespaces/inkscape"
   xmlns:sodipodi="http://sodipodi.sourceforge.net/DTD/sodipodi-0.dtd"
   xmlns="http://www.w3.org/2000/svg"
   xmlns:svg="http://www.w3.org/2000/svg">
  <defs
     id="defs163" />
  <sodipodi:namedview
     id="namedview161"
     pagecolor="#ffffff"
     bordercolor="#666666"
     borderopacity="1.0"
     inkscape:showpageshadow="2"
     inkscape:pageopacity="0.0"
     inkscape:pagecheckerboard="0"
     inkscape:deskcolor="#d1d1d1"
     showgrid="false"
     inkscape:zoom="12.625"
     inkscape:cx="50.178218"
     inkscape:cy="32"
     inkscape:window-width="1920"
     inkscape:window-height="1011"
     inkscape:window-x="0"
     inkscape:window-y="0"
     inkscape:window-maximized="1"
     inkscape:current-layer="g165" />
  <g
     inkscape:groupmode="layer"
     inkscape:label="Image"
     id="g165">
    <path
       style="fill:none;stroke:#000000;stroke-width:1px;stroke-linecap:butt;stroke-linejoin:miter;stroke-opacity:1"
       d="m 10.273824,15.598082 9.296721,-9.2332924 24.712871,0.040532 9.275681,9.1970914 0.01949,32.819926 -8.936881,9.065904 -25.107673,0.154393 -9.021968,-9.126856 z"
       id="path25147" />
    <path
       style="fill:none;stroke:#000000;stroke-width:1px;stroke-linecap:butt;stroke-linejoin:miter;stroke-opacity:1"
       d="m 16.430384,17.615099 -0.08385,-4.121906 1.044864,-1.01547 4.011448,-0.0396 1.113242,1.157178 0.02939,3.967512 -1.002166,0.935644 -4.060334,-0.05012 z"
       id="path25149" />
    <path
       style="fill:none;stroke:#000000;stroke-width:1px;stroke-linecap:butt;stroke-linejoin:miter;stroke-opacity:1"
       d="m 24.512958,17.623127 -0.08385,-4.121906 1.044864,-1.01547 4.011448,-0.0396 1.113242,1.157178 0.02939,3.967512 -1.002166,0.935644 -4.060334,-0.05012 z"
       id="path25149-3" />
    <path
       style="fill:none;stroke:#000000;stroke-width:1px;stroke-linecap:butt;stroke-linejoin:miter;stroke-opacity:1"
       d="m 33.409616,17.705738 -0.08385,-4.121906 1.044864,-1.01547 4.011448,-0.0396 1.113242,1.157178 0.02939,3.967512 -1.002166,0.935644 -4.060334,-0.05012 z"
       id="path25149-6" />
    <path
       style="fill:none;stroke:#000000;stroke-width:1px;stroke-linecap:butt;stroke-linejoin:miter;stroke-opacity:1"
       d="m 41.610112,17.636741 -0.08385,-4.121906 1.044864,-1.01547 4.011448,-0.0396 1.113242,1.157178 0.02939,3.967512 -1.002166,0.935644 -4.060334,-0.05012 z"
       id="path25149-7" />
    <path
       style="fill:none;stroke:#000000;stroke-width:1px;stroke-linecap:butt;stroke-linejoin:miter;stroke-opacity:1"
       d="m 41.482945,26.533709 -0.08385,-4.121906 1.044864,-1.01547 4.011448,-0.0396 1.113242,1.157178 0.02939,3.967512 -1.002166,0.935644 -4.060334,-0.05012 z"
       id="path25149-5" />
    <path
       style="fill:none;stroke:#000000;stroke-width:1px;stroke-linecap:butt;stroke-linejoin:miter;stroke-opacity:1"
       d="m 33.588144,26.587855 -0.08385,-4.121906 1.044864,-1.01547 4.011448,-0.0396 1.113242,1.157178 0.02939,3.967512 -1.002166,0.935644 -4.060334,-0.05012 z"
       id="path25149-35" />
    <path
       style="fill:none;stroke:#000000;stroke-width:1px;stroke-linecap:butt;stroke-linejoin:miter;stroke-opacity:1"
       d="m 24.44922,26.602087 -0.08385,-4.121906 1.044864,-1.01547 4.011448,-0.0396 1.113242,1.157178 0.02939,3.967512 -1.002166,0.935644 -4.060334,-0.05012 z"
       id="path25149-62" />
    <path
       style="fill:none;stroke:#000000;stroke-width:1px;stroke-linecap:butt;stroke-linejoin:miter;stroke-opacity:1"
       d="m 16.501819,26.557843 -0.08385,-4.121906 1.044864,-1.01547 4.011448,-0.0396 1.113242,1.157178 0.02939,3.967512 -1.002166,0.935644 -4.060334,-0.05012 z"
       id="path25149-9" />
    <path
       style="fill:none;stroke:#000000;stroke-width:1px;stroke-linecap:butt;stroke-linejoin:miter;stroke-opacity:1"
       d="m 16.512649,35.633028 -0.08385,-4.121906 1.044864,-1.01547 4.011448,-0.0396 1.113242,1.157178 0.02939,3.967512 -1.002166,0.935644 -4.060334,-0.05012 z"
       id="path25149-1" />
    <path
       style="fill:none;stroke:#000000;stroke-width:1px;stroke-linecap:butt;stroke-linejoin:miter;stroke-opacity:1"
       d="m 24.489133,35.760812 -0.08385,-4.121906 1.044864,-1.01547 4.011448,-0.0396 1.113242,1.157178 0.02939,3.967512 -1.002166,0.935644 -4.060334,-0.05012 z"
       id="path25149-2" />
    <path
       style="fill:none;stroke:#000000;stroke-width:1px;stroke-linecap:butt;stroke-linejoin:miter;stroke-opacity:1"
       d="m 33.522859,35.63736 -0.08385,-4.121906 1.044864,-1.01547 4.011448,-0.0396 1.113242,1.157178 0.02939,3.967512 -1.002166,0.935644 -4.060334,-0.05012 z"
       id="path25149-70" />
    <path
       style="fill:none;stroke:#000000;stroke-width:1px;stroke-linecap:butt;stroke-linejoin:miter;stroke-opacity:1"
       d="m 41.477376,35.730181 -0.08385,-4.121906 1.044864,-1.01547 4.011448,-0.0396 1.113242,1.157178 0.02939,3.967512 -1.002166,0.935644 -4.060334,-0.05012 z"
       id="path25149-93" />
    <path
       style="fill:none;stroke:#000000;stroke-width:1px;stroke-linecap:butt;stroke-linejoin:miter;stroke-opacity:1"
       d="m 16.58474,44.608585 -0.08385,-4.121906 1.044864,-1.01547 4.011448,-0.0396 1.113242,1.157178 0.02939,3.967512 -1.002166,0.935644 -4.060334,-0.05012 z"
       id="path25149-60" />
    <path
       style="fill:none;stroke:#000000;stroke-width:1px;stroke-linecap:butt;stroke-linejoin:miter;stroke-opacity:1"
       d="m 24.537091,44.653449 -0.08385,-4.121906 1.044864,-1.01547 4.011448,-0.0396 1.113242,1.157178 0.02939,3.967512 -1.002166,0.935644 -4.060334,-0.05012 z"
       id="path25149-626" />
    <path
       style="fill:none;stroke:#000000;stroke-width:1px;stroke-linecap:butt;stroke-linejoin:miter;stroke-opacity:1"
       d="m 33.38703,44.775355 -0.08385,-4.121906 1.044864,-1.01547 4.011448,-0.0396 1.113242,1.157178 0.02939,3.967512 -1.002166,0.935644 -4.060334,-0.05012 z"
       id="path25149-18" />
    <path
       style="fill:none;stroke:#000000;stroke-width:1px;stroke-linecap:butt;stroke-linejoin:miter;stroke-opacity:1"
       d="m 41.545755,44.690888 -0.08385,-4.121906 1.044864,-1.01547 4.011448,-0.0396 1.113242,1.157178 0.02939,3.967512 -1.002166,0.935644 -4.060334,-0.05012 z"
       id="path25149-79" />
    <path
       style="fill:none;stroke:#000000;stroke-width:1px;stroke-linecap:butt;stroke-linejoin:miter;stroke-opacity:1"
       d="m 16.559369,52.594352 -0.08385,-4.121906 1.044864,-1.01547 4.011448,-0.0396 1.113242,1.157178 0.02939,3.967512 -1.002166,0.935644 -4.060334,-0.05012 z"
       id="path25149-20" />
    <path
       style="fill:none;stroke:#000000;stroke-width:1px;stroke-linecap:butt;stroke-linejoin:miter;stroke-opacity:1"
       d="m 24.505533,52.565577 -0.08385,-4.121906 1.044864,-1.01547 4.011448,-0.0396 1.113242,1.157178 0.02939,3.967512 -1.002166,0.935644 -4.060334,-0.05012 z"
       id="path25149-23" />
    <path
       style="fill:none;stroke:#000000;stroke-width:1px;stroke-linecap:butt;stroke-linejoin:miter;stroke-opacity:1"
       d="m 33.497178,52.568362 -0.08385,-4.121906 1.044864,-1.01547 4.011448,-0.0396 1.113242,1.157178 0.02939,3.967512 -1.002166,0.935644 -4.060334,-0.05012 z"
       id="path25149-75" />
    <path
       style="fill:none;stroke:#000000;stroke-width:1px;stroke-linecap:butt;stroke-linejoin:miter;stroke-opacity:1"
       d="m 41.54854,52.659946 -0.08385,-4.121906 1.044864,-1.01547 4.011448,-0.0396 1.113242,1.157178 0.02939,3.967512 -1.002166,0.935644 -4.060334,-0.05012 z"
       id="path25149-92" />
  </g>
</svg>
